<svg width="111" height="90" viewBox="0 0 111 90" fill="none" xmlns="http://www.w3.org/2000/svg">
<path d="M0 24.5455C0 47.8636 0.136364 49.0909 2.59092 49.0909C4.22728 49.0909 12.8182 57 24.8183 69.5455C42.8183 88.3636 44.7274 90 49.0911 90C54.5456 90 57.2729 88.0909 57.2729 84.2727C57.2729 82.3636 58.3638 81.8182 61.7729 81.8182C66.8184 81.8182 69.5457 79.7727 69.5457 76.0909C69.5457 74.1818 70.6366 73.6364 74.0457 73.6364C79.0911 73.6364 81.8184 71.5909 81.8184 67.9091C81.8184 66 82.9093 65.4545 86.3184 65.4545C92.1821 65.4545 94.0912 63.4091 94.0912 57.1364C94.0912 52.6364 93.0003 51.2727 80.8639 40.3636C68.3184 29.1818 67.2275 28.5 62.7275 29.3182C49.2274 31.6364 38.7274 31.6364 34.3637 29.4545C29.0455 26.7273 25.9092 21 25.9092 13.9091C25.9092 7.63636 27.2728 6.27272 36.9547 2.86363L44.3183 0.136361H22.2273L0 -2.68221e-06V24.5455Z" fill="#008080"/>
<path d="M48.8175 5.72408C32.8629 11.315 32.7266 11.315 32.7266 15.6786C32.7266 18.2695 33.8175 20.9968 35.4538 22.4968C38.1811 24.9514 44.0448 24.9514 64.0903 22.3604L70.2267 21.6786L85.6358 36.4059C96.2722 46.6332 100.909 52.0877 100.909 54.1332C100.909 56.8604 101.59 57.2695 105.681 57.2695H110.454V32.7241C110.454 18.6786 109.909 8.17863 109.227 8.17863C108.545 8.17863 104.863 8.86044 101.181 9.67863C94.4995 11.315 94.2267 11.1786 83.8631 5.58772C77.5903 2.17863 71.7267 -0.00319147 69.1358 0.133172C66.6812 0.133172 57.5448 2.72408 48.8175 5.72408Z" fill="#008080"/>
</svg>
