<svg width="95" height="95" viewBox="0 0 95 95" fill="none" xmlns="http://www.w3.org/2000/svg">
<path d="M70.0236 0.0131926C62.3672 0.228397 52.9416 1.44542 47.6044 6.781L46.2961 8.0277C37.6288 16.7398 37.6957 30.4461 46.4151 39.1953L55.9298 48.6939C60.1594 52.9312 65.7122 55.2836 71.5697 55.2836C77.3603 55.2836 82.8536 52.9312 87.0312 48.7533L88.28 47.5066C94.9181 40.8872 94.9775 27.218 94.9998 21.3852C95.0073 20.3611 94.7768 19.5597 94.2268 19.0106C93.7807 18.5653 93.1415 18.3575 92.5022 18.3575C91.4838 18.3575 90.6959 18.9512 90.3019 19.3074L77.9327 31.715C77.6726 31.7596 77.0704 31.8338 75.9108 31.8338C71.7481 31.8338 65.9352 31.0249 64.4931 30.409C63.5342 28.3163 62.7909 19.1516 63.4227 17.2296C65.3554 15.3001 75.896 4.71801 75.9703 4.6438C76.3048 4.26534 77.3975 2.95185 76.7434 1.49736C76.4906 0.940798 75.8068 0.0206134 74.0079 0.0131926H73.1753C72.1718 0.0131926 71.1163 -0.0164908 70.0236 0.0131926ZM40.5278 37.9485L4.25278 70.8971C0.40971 74.7411 -2.99479 83.5422 4.25278 90.785C7.59038 94.1169 11.0841 95 13.8865 95C14.6075 95 15.2394 94.9184 15.8489 94.8219C19.4764 94.2802 22.5018 92.4027 24.1743 90.7256L57.1192 54.5119L54.0863 52.1966L42.847 40.9763L40.5278 37.9485Z" fill="#008080"/>
</svg>
