<svg width="91" height="92" viewBox="0 0 91 92" fill="none" xmlns="http://www.w3.org/2000/svg">
<path d="M29.5887 2.35223C17.6615 6.82494 8.94542 14.6235 3.09649 26.5507C0.22937 32.285 0 34.0052 0 46.0471C0 58.3184 0.22937 59.6946 3.32586 66.117C7.68388 74.9477 16.3999 83.6638 25.2307 88.0218C31.653 91.1183 33.0292 91.3477 45.3005 91.3477C57.5718 91.3477 58.948 91.1183 65.3704 88.0218C74.2011 83.6638 82.9171 74.9477 87.2752 66.117C90.3716 59.6946 90.601 58.3184 90.601 46.0471C90.601 33.7759 90.3716 32.3997 87.2752 25.9773C82.9171 17.1466 74.2011 8.43053 65.3704 4.18719C59.4067 1.20538 56.9984 0.746642 47.0208 0.402588C37.9607 0.173218 34.2908 0.631958 29.5887 2.35223ZM72.0221 21.9633C73.857 24.1423 76.7241 28.6151 78.3297 32.0556C83.0318 42.3772 81.0822 59.1212 74.3158 66.9198C72.7102 68.6401 72.4808 68.6401 70.4165 66.5757C69.2696 65.4289 67.32 64.3967 66.1731 64.3967C61.7004 64.3967 59.6361 61.4149 59.0627 53.8457L58.4893 46.6206L47.0208 46.0471C40.7131 45.7031 34.8642 45.015 34.1761 44.5562C31.309 42.7213 32.5705 39.0514 36.6991 37.3311C40.2544 35.9549 40.7131 35.1521 40.7131 31.7115C40.7131 26.2067 44.039 23.1102 49.8879 23.1102C55.2781 23.1102 59.0627 20.0137 59.0627 15.541V12.6739L63.7648 15.3116C66.4025 16.8025 70.0724 19.7843 72.0221 21.9633ZM31.5383 64.6261C31.5383 69.5575 34.6348 73.5715 38.4194 73.5715C40.2544 73.5715 40.7131 74.3743 40.7131 77.7002C40.7131 81.7141 40.5984 81.7141 37.0432 81.026C26.9509 78.847 18.2349 71.7366 13.1888 61.8737C10.3216 56.0247 9.74821 53.5017 9.74821 46.7353V38.5926L20.6433 49.4877C30.5062 59.3506 31.5383 60.7268 31.5383 64.6261Z" fill="#008080"/>
</svg>
