<svg width="512" height="512" viewBox="0 0 512 512" fill="none" xmlns="http://www.w3.org/2000/svg">
<g clip-path="url(#clip0_2209_3233)">
<path d="M30.72 0H481.28L492.544 3.072L501.76 10.24L508.928 19.456L512 30.72V481.28L508.928 492.544L501.76 501.76L492.544 508.928L481.28 512H462.848L451.584 508.928L442.368 501.76L434.176 490.496L431.104 481.28L430.08 140.288L414.72 156.672L403.456 167.936L395.264 175.104L382.976 187.392L375.808 195.584L360.448 210.944L352.256 218.112L339.968 230.4L332.8 238.592L317.44 253.952L309.248 261.12L296.96 273.408L289.792 281.6L275.456 295.936L267.264 303.104L254.976 315.392L247.808 323.584L232.448 338.944L224.256 346.112L211.968 358.4L204.8 366.592L189.44 381.952L181.248 389.12L169.984 400.384L162.816 408.576L147.456 423.936L139.264 431.104L126.976 443.392L119.808 451.584L104.448 466.944L96.256 474.112L83.968 486.4L76.8 494.592L66.56 504.832L58.368 509.952L49.152 512H30.72L19.456 508.928L10.24 501.76L3.072 492.544L0 481.28V462.848L3.072 451.584L10.24 442.368L23.552 429.056L31.744 421.888L44.032 409.6L51.2 401.408L66.56 386.048L74.752 378.88L87.04 366.592L94.208 358.4L109.568 343.04L117.76 335.872L129.024 324.608L136.192 316.416L151.552 301.056L159.744 293.888L172.032 281.6L179.2 273.408L194.56 258.048L202.752 250.88L214.016 239.616L221.184 231.424L237.568 215.04L245.76 207.872L257.024 196.608L264.192 188.416L279.552 173.056L287.744 165.888L300.032 153.6L307.2 145.408L322.56 130.048L330.752 122.88L342.016 111.616L349.184 103.424L364.544 88.064L371.712 81.92L30.72 80.896L19.456 76.8L10.24 69.632L3.072 60.416L0 49.152V30.72L3.072 19.456L10.24 10.24L19.456 3.072L30.72 0Z" fill="#008080"/>
</g>
<defs>
<clipPath id="clip0_2209_3233">
<rect width="512" height="512" fill="white"/>
</clipPath>
</defs>
</svg>
