<svg width="44" height="44" viewBox="0 0 44 44" fill="none" xmlns="http://www.w3.org/2000/svg">
<mask id="path-1-outside-1_2053_28" maskUnits="userSpaceOnUse" x="0" y="0" width="44" height="44" fill="black">
<rect fill="white" width="44" height="44"/>
<path d="M3.52 1H40.48L41.404 1.252L42.16 1.84L42.748 2.596L43 3.52V40.48L42.748 41.404L42.16 42.16L41.404 42.748L40.48 43H38.968L38.044 42.748L37.288 42.16L36.616 41.236L36.364 40.48L36.28 12.508L35.02 13.852L34.096 14.776L33.424 15.364L32.416 16.372L31.828 17.044L30.568 18.304L29.896 18.892L28.888 19.9L28.3 20.572L27.04 21.832L26.368 22.42L25.36 23.428L24.772 24.1L23.596 25.276L22.924 25.864L21.916 26.872L21.328 27.544L20.068 28.804L19.396 29.392L18.388 30.4L17.8 31.072L16.54 32.332L15.868 32.92L14.944 33.844L14.356 34.516L13.096 35.776L12.424 36.364L11.416 37.372L10.828 38.044L9.568 39.304L8.896 39.892L7.888 40.9L7.3 41.572L6.46 42.412L5.788 42.832L5.032 43H3.52L2.596 42.748L1.84 42.16L1.252 41.404L1 40.48V38.968L1.252 38.044L1.84 37.288L2.932 36.196L3.604 35.608L4.612 34.6L5.2 33.928L6.46 32.668L7.132 32.08L8.14 31.072L8.728 30.4L9.988 29.14L10.66 28.552L11.584 27.628L12.172 26.956L13.432 25.696L14.104 25.108L15.112 24.1L15.7 23.428L16.96 22.168L17.632 21.58L18.556 20.656L19.144 19.984L20.488 18.64L21.16 18.052L22.084 17.128L22.672 16.456L23.932 15.196L24.604 14.608L25.612 13.6L26.2 12.928L27.46 11.668L28.132 11.08L29.056 10.156L29.644 9.484L30.904 8.224L31.492 7.72L3.52 7.636L2.596 7.3L1.84 6.712L1.252 5.956L1 5.032V3.52L1.252 2.596L1.84 1.84L2.596 1.252L3.52 1Z"/>
</mask>
<path d="M3.52 1H40.48L41.404 1.252L42.16 1.84L42.748 2.596L43 3.52V40.48L42.748 41.404L42.16 42.16L41.404 42.748L40.48 43H38.968L38.044 42.748L37.288 42.16L36.616 41.236L36.364 40.48L36.28 12.508L35.02 13.852L34.096 14.776L33.424 15.364L32.416 16.372L31.828 17.044L30.568 18.304L29.896 18.892L28.888 19.9L28.3 20.572L27.04 21.832L26.368 22.42L25.36 23.428L24.772 24.1L23.596 25.276L22.924 25.864L21.916 26.872L21.328 27.544L20.068 28.804L19.396 29.392L18.388 30.4L17.8 31.072L16.54 32.332L15.868 32.92L14.944 33.844L14.356 34.516L13.096 35.776L12.424 36.364L11.416 37.372L10.828 38.044L9.568 39.304L8.896 39.892L7.888 40.9L7.3 41.572L6.46 42.412L5.788 42.832L5.032 43H3.52L2.596 42.748L1.84 42.16L1.252 41.404L1 40.48V38.968L1.252 38.044L1.84 37.288L2.932 36.196L3.604 35.608L4.612 34.6L5.2 33.928L6.46 32.668L7.132 32.08L8.14 31.072L8.728 30.4L9.988 29.14L10.66 28.552L11.584 27.628L12.172 26.956L13.432 25.696L14.104 25.108L15.112 24.1L15.7 23.428L16.96 22.168L17.632 21.58L18.556 20.656L19.144 19.984L20.488 18.64L21.16 18.052L22.084 17.128L22.672 16.456L23.932 15.196L24.604 14.608L25.612 13.6L26.2 12.928L27.46 11.668L28.132 11.08L29.056 10.156L29.644 9.484L30.904 8.224L31.492 7.72L3.52 7.636L2.596 7.3L1.84 6.712L1.252 5.956L1 5.032V3.52L1.252 2.596L1.84 1.84L2.596 1.252L3.52 1Z" fill="white"/>
<path d="M3.52 1H40.48L41.404 1.252L42.16 1.84L42.748 2.596L43 3.52V40.48L42.748 41.404L42.16 42.16L41.404 42.748L40.48 43H38.968L38.044 42.748L37.288 42.16L36.616 41.236L36.364 40.48L36.28 12.508L35.02 13.852L34.096 14.776L33.424 15.364L32.416 16.372L31.828 17.044L30.568 18.304L29.896 18.892L28.888 19.9L28.3 20.572L27.04 21.832L26.368 22.42L25.36 23.428L24.772 24.1L23.596 25.276L22.924 25.864L21.916 26.872L21.328 27.544L20.068 28.804L19.396 29.392L18.388 30.4L17.8 31.072L16.54 32.332L15.868 32.92L14.944 33.844L14.356 34.516L13.096 35.776L12.424 36.364L11.416 37.372L10.828 38.044L9.568 39.304L8.896 39.892L7.888 40.9L7.3 41.572L6.46 42.412L5.788 42.832L5.032 43H3.52L2.596 42.748L1.84 42.16L1.252 41.404L1 40.48V38.968L1.252 38.044L1.84 37.288L2.932 36.196L3.604 35.608L4.612 34.6L5.2 33.928L6.46 32.668L7.132 32.08L8.14 31.072L8.728 30.4L9.988 29.14L10.66 28.552L11.584 27.628L12.172 26.956L13.432 25.696L14.104 25.108L15.112 24.1L15.7 23.428L16.96 22.168L17.632 21.58L18.556 20.656L19.144 19.984L20.488 18.64L21.16 18.052L22.084 17.128L22.672 16.456L23.932 15.196L24.604 14.608L25.612 13.6L26.2 12.928L27.46 11.668L28.132 11.08L29.056 10.156L29.644 9.484L30.904 8.224L31.492 7.72L3.52 7.636L2.596 7.3L1.84 6.712L1.252 5.956L1 5.032V3.52L1.252 2.596L1.84 1.84L2.596 1.252L3.52 1Z" stroke="white" stroke-width="2" mask="url(#path-1-outside-1_2053_28)"/>
</svg>
