<svg width="21" height="20" viewBox="0 0 21 20" fill="none" xmlns="http://www.w3.org/2000/svg">
<path d="M1.71647 1.05048C1.62653 1.00657 1.52545 0.990785 1.4264 1.00517C1.32736 1.01956 1.23495 1.06346 1.16122 1.13114C1.08749 1.19883 1.03587 1.28715 1.01308 1.38461C0.990293 1.48206 0.997396 1.58412 1.03347 1.67748L3.87647 9.30448C4.04414 9.75471 4.04414 10.2502 3.87647 10.7005L1.03447 18.3275C0.998578 18.4207 0.991568 18.5226 1.01434 18.6199C1.03712 18.7172 1.08863 18.8053 1.16219 18.873C1.23574 18.9406 1.32793 18.9845 1.42678 18.9991C1.52563 19.0136 1.62656 18.9981 1.71647 18.9545L19.7165 10.4545C19.8021 10.414 19.8744 10.35 19.9251 10.27C19.9758 10.19 20.0027 10.0972 20.0027 10.0025C20.0027 9.90776 19.9758 9.81499 19.9251 9.73497C19.8744 9.65495 19.8021 9.59097 19.7165 9.55048L1.71647 1.05048Z" stroke="white" stroke-width="2" stroke-linecap="round" stroke-linejoin="round"/>
<path d="M4.00244 10.0039H20.0024" stroke="white" stroke-width="2" stroke-linecap="round" stroke-linejoin="round"/>
</svg>
