<svg width="469" height="556" viewBox="0 0 469 556" fill="none" xmlns="http://www.w3.org/2000/svg">
<g filter="url(#filter0_d_2077_48)">
<path d="M227.209 23.3002C193.909 54.6002 152.309 77.1002 107.809 87.8002C84.4091 93.5002 57.2091 97.0002 35.9091 97.0002H23.3091L22.6091 105.2C21.6091 118.5 21.9091 224 23.0091 241.5C28.4091 324.7 46.4091 380.1 84.2091 430.3C93.6091 442.8 119.609 468.2 134.209 479.1C159.809 498.3 195.409 516.9 228.809 528.6C233.909 530.4 234.109 530.4 239.309 528.6C272.609 516.9 308.209 498.3 333.809 479.1C348.409 468.2 374.409 442.8 383.809 430.3C404.709 402.6 419.309 373.4 429.409 338.9C437.609 311 442.409 280.8 445.009 241.5C446.109 224 446.409 118.5 445.409 105.2L444.709 97.0002H432.109C410.809 97.0002 383.609 93.5002 360.209 87.8002C315.709 77.1002 274.109 54.6002 240.809 23.3002C237.709 20.4002 234.609 18.0002 234.009 18.0002C233.409 18.0002 230.309 20.4002 227.209 23.3002Z" fill="url(#paint0_linear_2077_48)"/>
</g>
<defs>
<filter id="filter0_d_2077_48" x="0" y="0" width="468.019" height="555.95" filterUnits="userSpaceOnUse" color-interpolation-filters="sRGB">
<feFlood flood-opacity="0" result="BackgroundImageFix"/>
<feColorMatrix in="SourceAlpha" type="matrix" values="0 0 0 0 0 0 0 0 0 0 0 0 0 0 0 0 0 0 127 0" result="hardAlpha"/>
<feOffset dy="4"/>
<feGaussianBlur stdDeviation="11"/>
<feComposite in2="hardAlpha" operator="out"/>
<feColorMatrix type="matrix" values="0 0 0 0 0.597933 0 0 0 0 0.597933 0 0 0 0 0.597933 0 0 0 0.25 0"/>
<feBlend mode="normal" in2="BackgroundImageFix" result="effect1_dropShadow_2077_48"/>
<feBlend mode="normal" in="SourceGraphic" in2="effect1_dropShadow_2077_48" result="shape"/>
</filter>
<linearGradient id="paint0_linear_2077_48" x1="234.009" y1="18.0002" x2="234.009" y2="529.95" gradientUnits="userSpaceOnUse">
<stop stop-color="#F08300"/>
<stop offset="1" stop-color="#F4E8D4"/>
</linearGradient>
</defs>
</svg>
