<svg width="577" height="556" viewBox="0 0 577 556" fill="none" xmlns="http://www.w3.org/2000/svg">
<g filter="url(#filter0_d_2077_82)">
<path d="M282.443 19.3607C280.675 19.7766 277.972 21.544 276.516 23.1036C274.645 25.079 263.52 51.3832 241.063 107.111L208.417 188.207L202.282 189.038C198.955 189.454 159.655 192.365 115.052 195.484C70.4496 198.499 32.8128 201.515 31.3572 202.138C24.9111 204.842 22 209.416 22 216.798C22 221.165 22.6238 223.452 24.2873 225.843C25.6389 227.715 56.1019 254.019 91.9712 284.482C127.945 314.841 157.576 340.313 157.784 341.041C158.096 341.665 148.946 379.718 137.406 425.568C125.345 474.122 116.612 510.927 116.612 513.734C116.612 524.962 127.737 532.552 137.822 528.289C140.005 527.354 174.731 506.04 214.967 480.776L288.161 434.925L361.459 480.88C401.799 506.04 436.525 527.458 438.604 528.289C448.585 532.552 459.71 524.859 459.71 513.734C459.71 510.927 450.977 474.122 438.916 425.568C427.376 379.718 418.226 341.665 418.538 341.041C418.746 340.313 448.377 314.945 484.351 284.482C520.22 254.019 550.683 227.715 552.035 225.843C553.802 223.348 554.322 221.165 554.322 216.59C554.322 211.392 553.906 210.144 550.995 206.817C549.227 204.738 546.524 202.658 545.069 202.034C543.613 201.515 503.377 198.292 455.655 194.965C407.933 191.534 368.633 188.414 368.217 187.999C367.801 187.583 352.83 150.882 335.051 106.591C312.698 51.1752 301.781 25.079 299.805 23.1036C295.647 18.8408 289.201 17.3853 282.443 19.3607Z" fill="url(#paint0_linear_2077_82)"/>
</g>
<defs>
<filter id="filter0_d_2077_82" x="0" y="0.492188" width="576.322" height="555" filterUnits="userSpaceOnUse" color-interpolation-filters="sRGB">
<feFlood flood-opacity="0" result="BackgroundImageFix"/>
<feColorMatrix in="SourceAlpha" type="matrix" values="0 0 0 0 0 0 0 0 0 0 0 0 0 0 0 0 0 0 127 0" result="hardAlpha"/>
<feOffset dy="4"/>
<feGaussianBlur stdDeviation="11"/>
<feComposite in2="hardAlpha" operator="out"/>
<feColorMatrix type="matrix" values="0 0 0 0 0.597933 0 0 0 0 0.597933 0 0 0 0 0.597933 0 0 0 0.25 0"/>
<feBlend mode="normal" in2="BackgroundImageFix" result="effect1_dropShadow_2077_82"/>
<feBlend mode="normal" in="SourceGraphic" in2="effect1_dropShadow_2077_82" result="shape"/>
</filter>
<linearGradient id="paint0_linear_2077_82" x1="288.161" y1="18.4922" x2="288.161" y2="529.492" gradientUnits="userSpaceOnUse">
<stop stop-color="#F08300"/>
<stop offset="1" stop-color="#F4E8D4"/>
</linearGradient>
</defs>
</svg>
