<svg xmlns="http://www.w3.org/2000/svg" xmlns:xlink="http://www.w3.org/1999/xlink" viewBox="0,0,256,256" width="500px" height="500px" fill-rule="nonzero"><g fill="#f08300" fill-rule="nonzero" stroke="none" stroke-width="1" stroke-linecap="butt" stroke-linejoin="miter" stroke-miterlimit="10" stroke-dasharray="" stroke-dashoffset="0" font-family="none" font-weight="none" font-size="none" text-anchor="none" style="mix-blend-mode: normal"><g transform="scale(8,8)"><path d="M14,5c-5.42187,0 -10,3.71094 -10,8.5c0,1.61719 0.59375,3.10156 1.5,4.375l-0.375,2.90625l-0.21875,1.75l1.59375,-0.6875l2.5,-1.03125c1.25,0.61719 2.65625,1.00781 4.15625,1.125c0.73047,2.95313 3.82031,5.0625 7.34375,5.0625c1.45313,0 2.78125,-0.41016 3.9375,-1.03125l1.1875,0.6875l1.71875,0.9375l-0.25,-1.9375l-0.21875,-1.8125c0.66406,-0.95312 1.125,-2.04297 1.125,-3.25c0,-2.55859 -1.70703,-4.70312 -4.125,-5.75c0.08594,-0.4375 0.125,-0.875 0.125,-1.34375c0,-4.78906 -4.57812,-8.5 -10,-8.5zM14,7c4.51953,0 8,3.00781 8,6.5c0,0.26563 -0.01953,0.52734 -0.0625,0.78125c-0.47266,-0.08203 -0.94141,-0.125 -1.4375,-0.125c-3.80078,0 -7.08984,2.46094 -7.46875,5.78125c-1.32031,-0.13281 -2.53125,-0.51172 -3.5625,-1.09375l-0.4375,-0.21875l-0.4375,0.1875l-1.28125,0.53125l0.21875,-1.53125l0.03125,-0.4375l-0.25,-0.3125c-0.83984,-1.03906 -1.3125,-2.25781 -1.3125,-3.5625c0,-3.49219 3.48047,-6.5 8,-6.5zM10.5625,9.15625c-0.77734,0 -1.40625,0.62891 -1.40625,1.40625c0,0.77734 0.62891,1.4375 1.40625,1.4375c0.77734,0 1.40625,-0.66016 1.40625,-1.4375c0,-0.77734 -0.62891,-1.40625 -1.40625,-1.40625zM17.25,9.15625c-0.77734,0 -1.4375,0.62891 -1.4375,1.40625c0,0.77734 0.66016,1.4375 1.4375,1.4375c0.77734,0 1.40625,-0.66016 1.40625,-1.4375c0,-0.77734 -0.62891,-1.40625 -1.40625,-1.40625zM20.5,16.15625c3.14063,0 5.5,2.09375 5.5,4.4375c0,0.88672 -0.32031,1.69141 -0.90625,2.40625l-0.28125,0.34375l0.0625,0.40625l0.03125,0.1875l-0.46875,-0.25l-0.5,0.34375c-0.93359,0.60547 -2.125,0.96875 -3.4375,0.96875c-3.14062,0 -5.5,-2.0625 -5.5,-4.40625c0,-2.34375 2.35938,-4.4375 5.5,-4.4375zM18,17.4375c-0.58984,0 -1.09375,0.47266 -1.09375,1.0625c0,0.58984 0.50391,1.0625 1.09375,1.0625c0.58594,0 1.0625,-0.47266 1.0625,-1.0625c0,-0.58984 -0.47266,-1.0625 -1.0625,-1.0625zM23.03125,17.4375c-0.58594,0 -1.0625,0.47266 -1.0625,1.0625c0,0.58984 0.47266,1.0625 1.0625,1.0625c0.58984,0 1.0625,-0.47266 1.0625,-1.0625c0,-0.58984 -0.47266,-1.0625 -1.0625,-1.0625z"></path></g></g></svg>